<mxfile host="app.diagrams.net" agent="Mozilla/5.0 (Windows NT 10.0; Win64; x64) AppleWebKit/537.36 (KHTML, like Gecko) Chrome/132.0.0.0 Safari/537.36" version="26.0.11">
  <diagram name="Page-1" id="YXdJVag-zocid9zhg3y6">
    <mxGraphModel dx="1644" dy="1546" grid="1" gridSize="10" guides="1" tooltips="1" connect="1" arrows="1" fold="1" page="1" pageScale="1" pageWidth="850" pageHeight="1100" math="0" shadow="0">
      <root>
        <mxCell id="0" />
        <mxCell id="1" parent="0" />
        <mxCell id="KhHzcaILqEh-gFajsOOs-122" style="rounded=0;orthogonalLoop=1;jettySize=auto;html=1;exitX=0.5;exitY=1;exitDx=0;exitDy=0;entryX=0.5;entryY=0;entryDx=0;entryDy=0;endArrow=none;startFill=0;" parent="1" source="KhHzcaILqEh-gFajsOOs-31" target="KhHzcaILqEh-gFajsOOs-41" edge="1">
          <mxGeometry relative="1" as="geometry" />
        </mxCell>
        <mxCell id="KhHzcaILqEh-gFajsOOs-31" value="&lt;font&gt;Name&lt;/font&gt;" style="ellipse;whiteSpace=wrap;html=1;align=center;fontSize=17;" parent="1" vertex="1">
          <mxGeometry x="720" y="540" width="100" height="40" as="geometry" />
        </mxCell>
        <mxCell id="KhHzcaILqEh-gFajsOOs-123" style="rounded=0;orthogonalLoop=1;jettySize=auto;html=1;exitX=0;exitY=1;exitDx=0;exitDy=0;entryX=0.75;entryY=0;entryDx=0;entryDy=0;endArrow=none;startFill=0;" parent="1" source="KhHzcaILqEh-gFajsOOs-32" target="KhHzcaILqEh-gFajsOOs-41" edge="1">
          <mxGeometry relative="1" as="geometry" />
        </mxCell>
        <mxCell id="KhHzcaILqEh-gFajsOOs-32" value="&lt;span&gt;Email&lt;/span&gt;" style="ellipse;whiteSpace=wrap;html=1;align=center;fontSize=17;" parent="1" vertex="1">
          <mxGeometry x="820" y="570" width="100" height="40" as="geometry" />
        </mxCell>
        <mxCell id="KhHzcaILqEh-gFajsOOs-124" style="rounded=0;orthogonalLoop=1;jettySize=auto;html=1;exitX=0;exitY=0.5;exitDx=0;exitDy=0;entryX=1;entryY=0;entryDx=0;entryDy=0;endArrow=none;startFill=0;" parent="1" source="KhHzcaILqEh-gFajsOOs-33" target="KhHzcaILqEh-gFajsOOs-41" edge="1">
          <mxGeometry relative="1" as="geometry" />
        </mxCell>
        <mxCell id="KhHzcaILqEh-gFajsOOs-33" value="&lt;span&gt;Password&lt;/span&gt;" style="ellipse;whiteSpace=wrap;html=1;align=center;fontSize=17;" parent="1" vertex="1">
          <mxGeometry x="880" y="620" width="100" height="40" as="geometry" />
        </mxCell>
        <mxCell id="KhHzcaILqEh-gFajsOOs-127" style="rounded=0;orthogonalLoop=1;jettySize=auto;html=1;exitX=0;exitY=0;exitDx=0;exitDy=0;entryX=0.75;entryY=1;entryDx=0;entryDy=0;endArrow=none;startFill=0;" parent="1" source="KhHzcaILqEh-gFajsOOs-34" target="KhHzcaILqEh-gFajsOOs-41" edge="1">
          <mxGeometry relative="1" as="geometry" />
        </mxCell>
        <mxCell id="KhHzcaILqEh-gFajsOOs-34" value="&lt;font&gt;Gender&lt;/font&gt;" style="ellipse;whiteSpace=wrap;html=1;align=center;fontSize=17;" parent="1" vertex="1">
          <mxGeometry x="820" y="770" width="100" height="40" as="geometry" />
        </mxCell>
        <mxCell id="KhHzcaILqEh-gFajsOOs-126" style="rounded=0;orthogonalLoop=1;jettySize=auto;html=1;exitX=0;exitY=0.5;exitDx=0;exitDy=0;entryX=1;entryY=1;entryDx=0;entryDy=0;endArrow=none;startFill=0;" parent="1" source="KhHzcaILqEh-gFajsOOs-35" target="KhHzcaILqEh-gFajsOOs-41" edge="1">
          <mxGeometry relative="1" as="geometry" />
        </mxCell>
        <mxCell id="KhHzcaILqEh-gFajsOOs-35" value="&lt;span&gt;Image&lt;/span&gt;" style="ellipse;whiteSpace=wrap;html=1;align=center;fontSize=17;" parent="1" vertex="1">
          <mxGeometry x="890" y="720" width="100" height="40" as="geometry" />
        </mxCell>
        <mxCell id="KhHzcaILqEh-gFajsOOs-129" style="rounded=0;orthogonalLoop=1;jettySize=auto;html=1;exitX=1;exitY=0;exitDx=0;exitDy=0;entryX=0.25;entryY=1;entryDx=0;entryDy=0;endArrow=none;startFill=0;" parent="1" source="KhHzcaILqEh-gFajsOOs-36" target="KhHzcaILqEh-gFajsOOs-41" edge="1">
          <mxGeometry relative="1" as="geometry" />
        </mxCell>
        <mxCell id="KhHzcaILqEh-gFajsOOs-36" value="&lt;span&gt;Date of birth&lt;/span&gt;" style="ellipse;whiteSpace=wrap;html=1;align=center;fontSize=17;" parent="1" vertex="1">
          <mxGeometry x="590" y="780" width="110" height="40" as="geometry" />
        </mxCell>
        <mxCell id="KhHzcaILqEh-gFajsOOs-125" style="rounded=0;orthogonalLoop=1;jettySize=auto;html=1;exitX=0;exitY=0.5;exitDx=0;exitDy=0;entryX=1;entryY=0.5;entryDx=0;entryDy=0;endArrow=none;startFill=0;" parent="1" source="KhHzcaILqEh-gFajsOOs-37" target="KhHzcaILqEh-gFajsOOs-41" edge="1">
          <mxGeometry relative="1" as="geometry" />
        </mxCell>
        <mxCell id="KhHzcaILqEh-gFajsOOs-37" value="&lt;span&gt;Address&lt;/span&gt;" style="ellipse;whiteSpace=wrap;html=1;align=center;fontSize=17;" parent="1" vertex="1">
          <mxGeometry x="930" y="670" width="100" height="40" as="geometry" />
        </mxCell>
        <mxCell id="KhHzcaILqEh-gFajsOOs-121" style="rounded=0;orthogonalLoop=1;jettySize=auto;html=1;exitX=0.5;exitY=1;exitDx=0;exitDy=0;entryX=0.25;entryY=0;entryDx=0;entryDy=0;endArrow=none;startFill=0;" parent="1" source="KhHzcaILqEh-gFajsOOs-38" target="KhHzcaILqEh-gFajsOOs-41" edge="1">
          <mxGeometry relative="1" as="geometry" />
        </mxCell>
        <mxCell id="KhHzcaILqEh-gFajsOOs-38" value="&lt;font&gt;Patient_ID&lt;/font&gt;" style="ellipse;whiteSpace=wrap;html=1;align=center;fontStyle=4;fontSize=17;" parent="1" vertex="1">
          <mxGeometry x="620" y="580" width="100" height="40" as="geometry" />
        </mxCell>
        <mxCell id="KhHzcaILqEh-gFajsOOs-128" style="rounded=0;orthogonalLoop=1;jettySize=auto;html=1;exitX=0.5;exitY=0;exitDx=0;exitDy=0;entryX=0.5;entryY=1;entryDx=0;entryDy=0;endArrow=none;startFill=0;" parent="1" source="KhHzcaILqEh-gFajsOOs-39" target="KhHzcaILqEh-gFajsOOs-41" edge="1">
          <mxGeometry relative="1" as="geometry" />
        </mxCell>
        <mxCell id="KhHzcaILqEh-gFajsOOs-39" value="&lt;font&gt;Age&lt;/font&gt;" style="ellipse;whiteSpace=wrap;html=1;align=center;dashed=1;fontSize=17;" parent="1" vertex="1">
          <mxGeometry x="710" y="800" width="100" height="40" as="geometry" />
        </mxCell>
        <mxCell id="KhHzcaILqEh-gFajsOOs-130" style="rounded=0;orthogonalLoop=1;jettySize=auto;html=1;exitX=1;exitY=0;exitDx=0;exitDy=0;entryX=0;entryY=1;entryDx=0;entryDy=0;endArrow=none;startFill=0;" parent="1" source="KhHzcaILqEh-gFajsOOs-40" target="KhHzcaILqEh-gFajsOOs-41" edge="1">
          <mxGeometry relative="1" as="geometry" />
        </mxCell>
        <mxCell id="KhHzcaILqEh-gFajsOOs-40" value="&lt;font&gt;Phone no.&lt;/font&gt;" style="ellipse;shape=doubleEllipse;margin=3;whiteSpace=wrap;html=1;align=center;fontSize=17;" parent="1" vertex="1">
          <mxGeometry x="530" y="730" width="100" height="40" as="geometry" />
        </mxCell>
        <mxCell id="KhHzcaILqEh-gFajsOOs-41" value="&lt;font style=&quot;font-size: 16.6667px;&quot;&gt;Patient&lt;/font&gt;" style="whiteSpace=wrap;html=1;align=center;" parent="1" vertex="1">
          <mxGeometry x="690" y="660" width="100" height="40" as="geometry" />
        </mxCell>
        <mxCell id="KhHzcaILqEh-gFajsOOs-42" value="&lt;span style=&quot;font-size: 16.6667px;&quot;&gt;Doctor&lt;/span&gt;" style="whiteSpace=wrap;html=1;align=center;" parent="1" vertex="1">
          <mxGeometry x="630" y="270" width="100" height="40" as="geometry" />
        </mxCell>
        <mxCell id="KhHzcaILqEh-gFajsOOs-111" style="rounded=0;orthogonalLoop=1;jettySize=auto;html=1;exitX=0.5;exitY=1;exitDx=0;exitDy=0;entryX=0.5;entryY=0;entryDx=0;entryDy=0;endArrow=none;startFill=0;" parent="1" source="KhHzcaILqEh-gFajsOOs-43" target="KhHzcaILqEh-gFajsOOs-42" edge="1">
          <mxGeometry relative="1" as="geometry" />
        </mxCell>
        <mxCell id="KhHzcaILqEh-gFajsOOs-43" value="Doctor_ID" style="ellipse;whiteSpace=wrap;html=1;align=center;fontStyle=4;fontSize=16.6667;" parent="1" vertex="1">
          <mxGeometry x="650" y="160" width="100" height="40" as="geometry" />
        </mxCell>
        <mxCell id="KhHzcaILqEh-gFajsOOs-115" style="rounded=0;orthogonalLoop=1;jettySize=auto;html=1;exitX=0;exitY=0.5;exitDx=0;exitDy=0;entryX=1;entryY=1;entryDx=0;entryDy=0;endArrow=none;startFill=0;" parent="1" source="KhHzcaILqEh-gFajsOOs-44" target="KhHzcaILqEh-gFajsOOs-42" edge="1">
          <mxGeometry relative="1" as="geometry" />
        </mxCell>
        <mxCell id="KhHzcaILqEh-gFajsOOs-44" value="Fee" style="ellipse;whiteSpace=wrap;html=1;align=center;fontSize=16.6667;" parent="1" vertex="1">
          <mxGeometry x="860" y="330" width="100" height="40" as="geometry" />
        </mxCell>
        <mxCell id="KhHzcaILqEh-gFajsOOs-118" style="rounded=0;orthogonalLoop=1;jettySize=auto;html=1;exitX=0.5;exitY=0;exitDx=0;exitDy=0;entryX=0.25;entryY=1;entryDx=0;entryDy=0;endArrow=none;startFill=0;" parent="1" source="KhHzcaILqEh-gFajsOOs-45" target="KhHzcaILqEh-gFajsOOs-42" edge="1">
          <mxGeometry relative="1" as="geometry" />
        </mxCell>
        <mxCell id="KhHzcaILqEh-gFajsOOs-45" value="Experience" style="ellipse;whiteSpace=wrap;html=1;align=center;fontSize=16.6667;" parent="1" vertex="1">
          <mxGeometry x="570" y="380" width="100" height="40" as="geometry" />
        </mxCell>
        <mxCell id="KhHzcaILqEh-gFajsOOs-120" style="rounded=0;orthogonalLoop=1;jettySize=auto;html=1;exitX=0;exitY=0;exitDx=0;exitDy=0;entryX=0.75;entryY=1;entryDx=0;entryDy=0;endArrow=none;startFill=0;" parent="1" source="KhHzcaILqEh-gFajsOOs-46" target="KhHzcaILqEh-gFajsOOs-42" edge="1">
          <mxGeometry relative="1" as="geometry" />
        </mxCell>
        <mxCell id="KhHzcaILqEh-gFajsOOs-46" value="Address" style="ellipse;whiteSpace=wrap;html=1;align=center;fontSize=16.6667;" parent="1" vertex="1">
          <mxGeometry x="790" y="380" width="100" height="40" as="geometry" />
        </mxCell>
        <mxCell id="KhHzcaILqEh-gFajsOOs-114" style="rounded=0;orthogonalLoop=1;jettySize=auto;html=1;exitX=0;exitY=0.5;exitDx=0;exitDy=0;entryX=1;entryY=0.5;entryDx=0;entryDy=0;endArrow=none;startFill=0;" parent="1" source="KhHzcaILqEh-gFajsOOs-47" target="KhHzcaILqEh-gFajsOOs-42" edge="1">
          <mxGeometry relative="1" as="geometry" />
        </mxCell>
        <mxCell id="KhHzcaILqEh-gFajsOOs-47" value="Password" style="ellipse;whiteSpace=wrap;html=1;align=center;fontSize=16.6667;" parent="1" vertex="1">
          <mxGeometry x="900" y="270" width="100" height="40" as="geometry" />
        </mxCell>
        <mxCell id="KhHzcaILqEh-gFajsOOs-113" style="rounded=0;orthogonalLoop=1;jettySize=auto;html=1;exitX=0;exitY=1;exitDx=0;exitDy=0;entryX=1;entryY=0;entryDx=0;entryDy=0;endArrow=none;startFill=0;" parent="1" source="KhHzcaILqEh-gFajsOOs-48" target="KhHzcaILqEh-gFajsOOs-42" edge="1">
          <mxGeometry relative="1" as="geometry" />
        </mxCell>
        <mxCell id="KhHzcaILqEh-gFajsOOs-48" value="Degree" style="ellipse;whiteSpace=wrap;html=1;align=center;fontSize=16.6667;" parent="1" vertex="1">
          <mxGeometry x="860" y="210" width="100" height="40" as="geometry" />
        </mxCell>
        <mxCell id="KhHzcaILqEh-gFajsOOs-117" style="rounded=0;orthogonalLoop=1;jettySize=auto;html=1;exitX=1;exitY=0;exitDx=0;exitDy=0;entryX=0;entryY=1;entryDx=0;entryDy=0;endArrow=none;startFill=0;" parent="1" source="KhHzcaILqEh-gFajsOOs-49" target="KhHzcaILqEh-gFajsOOs-42" edge="1">
          <mxGeometry relative="1" as="geometry" />
        </mxCell>
        <mxCell id="KhHzcaILqEh-gFajsOOs-49" value="Email" style="ellipse;whiteSpace=wrap;html=1;align=center;fontSize=16.6667;" parent="1" vertex="1">
          <mxGeometry x="500" y="330" width="100" height="40" as="geometry" />
        </mxCell>
        <mxCell id="KhHzcaILqEh-gFajsOOs-119" style="rounded=0;orthogonalLoop=1;jettySize=auto;html=1;exitX=0.5;exitY=0;exitDx=0;exitDy=0;entryX=0.5;entryY=1;entryDx=0;entryDy=0;endArrow=none;startFill=0;" parent="1" source="KhHzcaILqEh-gFajsOOs-50" target="KhHzcaILqEh-gFajsOOs-42" edge="1">
          <mxGeometry relative="1" as="geometry" />
        </mxCell>
        <mxCell id="KhHzcaILqEh-gFajsOOs-50" value="Specialty" style="ellipse;whiteSpace=wrap;html=1;align=center;fontSize=16.6667;" parent="1" vertex="1">
          <mxGeometry x="680" y="410" width="100" height="40" as="geometry" />
        </mxCell>
        <mxCell id="KhHzcaILqEh-gFajsOOs-112" style="rounded=0;orthogonalLoop=1;jettySize=auto;html=1;exitX=0;exitY=1;exitDx=0;exitDy=0;entryX=0.75;entryY=0;entryDx=0;entryDy=0;endArrow=none;startFill=0;" parent="1" source="KhHzcaILqEh-gFajsOOs-51" target="KhHzcaILqEh-gFajsOOs-42" edge="1">
          <mxGeometry relative="1" as="geometry" />
        </mxCell>
        <mxCell id="KhHzcaILqEh-gFajsOOs-51" value="&lt;font style=&quot;font-size: 16.6667px;&quot;&gt;Name&lt;/font&gt;" style="ellipse;whiteSpace=wrap;html=1;align=center;" parent="1" vertex="1">
          <mxGeometry x="760" y="170" width="100" height="40" as="geometry" />
        </mxCell>
        <mxCell id="KhHzcaILqEh-gFajsOOs-53" value="&lt;span style=&quot;font-size: 16.6667px;&quot;&gt;Appointment&lt;/span&gt;" style="whiteSpace=wrap;html=1;align=center;" parent="1" vertex="1">
          <mxGeometry x="-20" y="280" width="100" height="40" as="geometry" />
        </mxCell>
        <mxCell id="KhHzcaILqEh-gFajsOOs-96" style="rounded=0;orthogonalLoop=1;jettySize=auto;html=1;exitX=0.5;exitY=1;exitDx=0;exitDy=0;entryX=0.25;entryY=0;entryDx=0;entryDy=0;endArrow=none;startFill=0;" parent="1" source="KhHzcaILqEh-gFajsOOs-54" target="KhHzcaILqEh-gFajsOOs-53" edge="1">
          <mxGeometry relative="1" as="geometry" />
        </mxCell>
        <mxCell id="KhHzcaILqEh-gFajsOOs-54" value="Parient_ID" style="ellipse;whiteSpace=wrap;html=1;align=center;fontStyle=4;fontSize=16.6667;" parent="1" vertex="1">
          <mxGeometry x="-170" y="160" width="110" height="40" as="geometry" />
        </mxCell>
        <mxCell id="KhHzcaILqEh-gFajsOOs-95" style="rounded=0;orthogonalLoop=1;jettySize=auto;html=1;exitX=0.5;exitY=1;exitDx=0;exitDy=0;entryX=0.5;entryY=0;entryDx=0;entryDy=0;endArrow=none;startFill=0;" parent="1" source="KhHzcaILqEh-gFajsOOs-55" target="KhHzcaILqEh-gFajsOOs-53" edge="1">
          <mxGeometry relative="1" as="geometry" />
        </mxCell>
        <mxCell id="KhHzcaILqEh-gFajsOOs-55" value="Doctor_ID" style="ellipse;whiteSpace=wrap;html=1;align=center;fontStyle=4;fontSize=16.6667;" parent="1" vertex="1">
          <mxGeometry x="-50" y="180" width="110" height="40" as="geometry" />
        </mxCell>
        <mxCell id="KhHzcaILqEh-gFajsOOs-99" style="rounded=0;orthogonalLoop=1;jettySize=auto;html=1;exitX=1;exitY=0;exitDx=0;exitDy=0;entryX=0;entryY=1;entryDx=0;entryDy=0;endArrow=none;startFill=0;" parent="1" source="KhHzcaILqEh-gFajsOOs-56" target="KhHzcaILqEh-gFajsOOs-53" edge="1">
          <mxGeometry relative="1" as="geometry" />
        </mxCell>
        <mxCell id="KhHzcaILqEh-gFajsOOs-56" value="Date" style="ellipse;whiteSpace=wrap;html=1;align=center;fontSize=16.6667;" parent="1" vertex="1">
          <mxGeometry x="-190" y="340" width="100" height="40" as="geometry" />
        </mxCell>
        <mxCell id="KhHzcaILqEh-gFajsOOs-100" style="rounded=0;orthogonalLoop=1;jettySize=auto;html=1;exitX=1;exitY=0;exitDx=0;exitDy=0;entryX=0.25;entryY=1;entryDx=0;entryDy=0;endArrow=none;startFill=0;" parent="1" source="KhHzcaILqEh-gFajsOOs-57" target="KhHzcaILqEh-gFajsOOs-53" edge="1">
          <mxGeometry relative="1" as="geometry" />
        </mxCell>
        <mxCell id="KhHzcaILqEh-gFajsOOs-57" value="Time slot" style="ellipse;whiteSpace=wrap;html=1;align=center;fontSize=16.6667;" parent="1" vertex="1">
          <mxGeometry x="-90" y="370" width="100" height="40" as="geometry" />
        </mxCell>
        <mxCell id="KhHzcaILqEh-gFajsOOs-98" style="rounded=0;orthogonalLoop=1;jettySize=auto;html=1;exitX=1;exitY=0.5;exitDx=0;exitDy=0;entryX=0;entryY=0.5;entryDx=0;entryDy=0;endArrow=none;startFill=0;" parent="1" source="KhHzcaILqEh-gFajsOOs-58" target="KhHzcaILqEh-gFajsOOs-53" edge="1">
          <mxGeometry relative="1" as="geometry" />
        </mxCell>
        <mxCell id="KhHzcaILqEh-gFajsOOs-58" value="Payment status" style="ellipse;whiteSpace=wrap;html=1;align=center;fontSize=16.6667;" parent="1" vertex="1">
          <mxGeometry x="-280" y="280" width="100" height="40" as="geometry" />
        </mxCell>
        <mxCell id="KhHzcaILqEh-gFajsOOs-59" value="&lt;span style=&quot;font-size: 16.6667px;&quot;&gt;Payment&lt;/span&gt;" style="whiteSpace=wrap;html=1;align=center;" parent="1" vertex="1">
          <mxGeometry x="-20" y="660" width="100" height="40" as="geometry" />
        </mxCell>
        <mxCell id="KhHzcaILqEh-gFajsOOs-103" style="rounded=0;orthogonalLoop=1;jettySize=auto;html=1;exitX=1;exitY=0.5;exitDx=0;exitDy=0;entryX=0;entryY=0.5;entryDx=0;entryDy=0;endArrow=none;startFill=0;" parent="1" source="KhHzcaILqEh-gFajsOOs-60" target="KhHzcaILqEh-gFajsOOs-59" edge="1">
          <mxGeometry relative="1" as="geometry" />
        </mxCell>
        <mxCell id="KhHzcaILqEh-gFajsOOs-60" value="Payment_ID" style="ellipse;whiteSpace=wrap;html=1;align=center;fontStyle=4;fontSize=17;" parent="1" vertex="1">
          <mxGeometry x="-240" y="700" width="120" height="40" as="geometry" />
        </mxCell>
        <mxCell id="KhHzcaILqEh-gFajsOOs-102" style="rounded=0;orthogonalLoop=1;jettySize=auto;html=1;exitX=1;exitY=0.5;exitDx=0;exitDy=0;entryX=0;entryY=0;entryDx=0;entryDy=0;endArrow=none;startFill=0;" parent="1" source="KhHzcaILqEh-gFajsOOs-61" target="KhHzcaILqEh-gFajsOOs-59" edge="1">
          <mxGeometry relative="1" as="geometry" />
        </mxCell>
        <mxCell id="KhHzcaILqEh-gFajsOOs-61" value="Patient_ID" style="ellipse;whiteSpace=wrap;html=1;align=center;fontStyle=4;fontSize=17;" parent="1" vertex="1">
          <mxGeometry x="-200" y="640" width="100" height="40" as="geometry" />
        </mxCell>
        <mxCell id="KhHzcaILqEh-gFajsOOs-101" style="rounded=0;orthogonalLoop=1;jettySize=auto;html=1;exitX=1;exitY=1;exitDx=0;exitDy=0;entryX=0.25;entryY=0;entryDx=0;entryDy=0;endArrow=none;startFill=0;" parent="1" source="KhHzcaILqEh-gFajsOOs-62" target="KhHzcaILqEh-gFajsOOs-59" edge="1">
          <mxGeometry relative="1" as="geometry" />
        </mxCell>
        <mxCell id="KhHzcaILqEh-gFajsOOs-62" value="Appointment_ID" style="ellipse;whiteSpace=wrap;html=1;align=center;fontStyle=4;fontSize=17;" parent="1" vertex="1">
          <mxGeometry x="-140" y="590" width="150" height="40" as="geometry" />
        </mxCell>
        <mxCell id="KhHzcaILqEh-gFajsOOs-107" style="rounded=0;orthogonalLoop=1;jettySize=auto;html=1;exitX=0;exitY=0;exitDx=0;exitDy=0;entryX=0.5;entryY=1;entryDx=0;entryDy=0;endArrow=none;startFill=0;" parent="1" source="KhHzcaILqEh-gFajsOOs-63" target="KhHzcaILqEh-gFajsOOs-59" edge="1">
          <mxGeometry relative="1" as="geometry" />
        </mxCell>
        <mxCell id="KhHzcaILqEh-gFajsOOs-63" value="Amount" style="ellipse;whiteSpace=wrap;html=1;align=center;fontSize=17;" parent="1" vertex="1">
          <mxGeometry x="90" y="740" width="100" height="40" as="geometry" />
        </mxCell>
        <mxCell id="KhHzcaILqEh-gFajsOOs-104" style="rounded=0;orthogonalLoop=1;jettySize=auto;html=1;exitX=0.488;exitY=0.162;exitDx=0;exitDy=0;entryX=0;entryY=1;entryDx=0;entryDy=0;exitPerimeter=0;endArrow=none;startFill=0;" parent="1" source="KhHzcaILqEh-gFajsOOs-64" target="KhHzcaILqEh-gFajsOOs-59" edge="1">
          <mxGeometry relative="1" as="geometry" />
        </mxCell>
        <mxCell id="KhHzcaILqEh-gFajsOOs-64" value="Transaction status" style="ellipse;whiteSpace=wrap;html=1;align=center;fontSize=17;" parent="1" vertex="1">
          <mxGeometry x="-180" y="760" width="170" height="40" as="geometry" />
        </mxCell>
        <mxCell id="KhHzcaILqEh-gFajsOOs-105" style="rounded=0;orthogonalLoop=1;jettySize=auto;html=1;exitX=0.5;exitY=0;exitDx=0;exitDy=0;entryX=0.25;entryY=1;entryDx=0;entryDy=0;endArrow=none;startFill=0;" parent="1" source="KhHzcaILqEh-gFajsOOs-65" target="KhHzcaILqEh-gFajsOOs-59" edge="1">
          <mxGeometry relative="1" as="geometry" />
        </mxCell>
        <mxCell id="KhHzcaILqEh-gFajsOOs-65" value="Payment method" style="ellipse;whiteSpace=wrap;html=1;align=center;fontSize=17;" parent="1" vertex="1">
          <mxGeometry x="-10" y="790" width="160" height="40" as="geometry" />
        </mxCell>
        <mxCell id="KhHzcaILqEh-gFajsOOs-66" value="&lt;span style=&quot;font-size: 16.6667px;&quot;&gt;Admin&lt;/span&gt;" style="whiteSpace=wrap;html=1;align=center;" parent="1" vertex="1">
          <mxGeometry x="290" y="-90" width="100" height="40" as="geometry" />
        </mxCell>
        <mxCell id="KhHzcaILqEh-gFajsOOs-108" style="rounded=0;orthogonalLoop=1;jettySize=auto;html=1;exitX=1;exitY=0.5;exitDx=0;exitDy=0;entryX=0;entryY=0.5;entryDx=0;entryDy=0;endArrow=none;startFill=0;" parent="1" source="KhHzcaILqEh-gFajsOOs-67" target="KhHzcaILqEh-gFajsOOs-66" edge="1">
          <mxGeometry relative="1" as="geometry" />
        </mxCell>
        <mxCell id="KhHzcaILqEh-gFajsOOs-67" value="Admin_ID" style="ellipse;whiteSpace=wrap;html=1;align=center;fontStyle=4;fontSize=17;" parent="1" vertex="1">
          <mxGeometry x="150" y="-90" width="100" height="40" as="geometry" />
        </mxCell>
        <mxCell id="KhHzcaILqEh-gFajsOOs-110" style="rounded=0;orthogonalLoop=1;jettySize=auto;html=1;exitX=0;exitY=0.5;exitDx=0;exitDy=0;entryX=1;entryY=0.5;entryDx=0;entryDy=0;endArrow=none;startFill=0;" parent="1" source="KhHzcaILqEh-gFajsOOs-68" target="KhHzcaILqEh-gFajsOOs-66" edge="1">
          <mxGeometry relative="1" as="geometry" />
        </mxCell>
        <mxCell id="KhHzcaILqEh-gFajsOOs-68" value="Password" style="ellipse;whiteSpace=wrap;html=1;align=center;fontSize=17;" parent="1" vertex="1">
          <mxGeometry x="425" y="-90" width="100" height="40" as="geometry" />
        </mxCell>
        <mxCell id="KhHzcaILqEh-gFajsOOs-109" style="rounded=0;orthogonalLoop=1;jettySize=auto;html=1;exitX=0.5;exitY=1;exitDx=0;exitDy=0;entryX=0.5;entryY=0;entryDx=0;entryDy=0;endArrow=none;startFill=0;" parent="1" source="KhHzcaILqEh-gFajsOOs-69" target="KhHzcaILqEh-gFajsOOs-66" edge="1">
          <mxGeometry relative="1" as="geometry" />
        </mxCell>
        <mxCell id="KhHzcaILqEh-gFajsOOs-69" value="&lt;font&gt;Email&lt;/font&gt;" style="ellipse;whiteSpace=wrap;html=1;align=center;fontSize=17;" parent="1" vertex="1">
          <mxGeometry x="290" y="-180" width="100" height="40" as="geometry" />
        </mxCell>
        <mxCell id="KhHzcaILqEh-gFajsOOs-70" value="" style="edgeStyle=entityRelationEdgeStyle;fontSize=20;html=1;endArrow=ERoneToMany;rounded=0;entryX=1;entryY=0.75;entryDx=0;entryDy=0;exitX=0;exitY=0.5;exitDx=0;exitDy=0;" parent="1" source="KhHzcaILqEh-gFajsOOs-80" target="KhHzcaILqEh-gFajsOOs-53" edge="1">
          <mxGeometry width="100" height="100" relative="1" as="geometry">
            <mxPoint x="250" y="560" as="sourcePoint" />
            <mxPoint x="360" y="420" as="targetPoint" />
          </mxGeometry>
        </mxCell>
        <mxCell id="KhHzcaILqEh-gFajsOOs-71" value="" style="edgeStyle=entityRelationEdgeStyle;fontSize=20;html=1;endArrow=ERoneToMany;rounded=0;entryX=1;entryY=0.25;entryDx=0;entryDy=0;exitX=0;exitY=0.5;exitDx=0;exitDy=0;" parent="1" source="KhHzcaILqEh-gFajsOOs-82" target="KhHzcaILqEh-gFajsOOs-53" edge="1">
          <mxGeometry width="100" height="100" relative="1" as="geometry">
            <mxPoint x="90" y="390" as="sourcePoint" />
            <mxPoint x="190" y="290" as="targetPoint" />
          </mxGeometry>
        </mxCell>
        <mxCell id="KhHzcaILqEh-gFajsOOs-75" value="" style="fontSize=20;html=1;endArrow=ERmandOne;startArrow=ERmandOne;rounded=0;entryX=0.5;entryY=1;entryDx=0;entryDy=0;exitX=0.5;exitY=0;exitDx=0;exitDy=0;" parent="1" source="KhHzcaILqEh-gFajsOOs-59" target="KhHzcaILqEh-gFajsOOs-53" edge="1">
          <mxGeometry width="100" height="100" relative="1" as="geometry">
            <mxPoint x="260" y="490" as="sourcePoint" />
            <mxPoint x="100" y="420" as="targetPoint" />
          </mxGeometry>
        </mxCell>
        <mxCell id="KhHzcaILqEh-gFajsOOs-79" value="" style="endArrow=none;html=1;rounded=0;entryX=0.25;entryY=1;entryDx=0;entryDy=0;exitX=0.75;exitY=0;exitDx=0;exitDy=0;fontSize=20;" parent="1" source="KhHzcaILqEh-gFajsOOs-85" target="KhHzcaILqEh-gFajsOOs-66" edge="1">
          <mxGeometry relative="1" as="geometry">
            <mxPoint x="180" y="220" as="sourcePoint" />
            <mxPoint x="340" y="220" as="targetPoint" />
          </mxGeometry>
        </mxCell>
        <mxCell id="KhHzcaILqEh-gFajsOOs-81" value="" style="edgeStyle=entityRelationEdgeStyle;fontSize=20;html=1;endArrow=none;rounded=0;entryX=1;entryY=0.75;entryDx=0;entryDy=0;exitX=0;exitY=0.25;exitDx=0;exitDy=0;startFill=0;" parent="1" source="KhHzcaILqEh-gFajsOOs-41" target="KhHzcaILqEh-gFajsOOs-80" edge="1">
          <mxGeometry width="100" height="100" relative="1" as="geometry">
            <mxPoint x="680" y="660" as="sourcePoint" />
            <mxPoint x="80" y="310" as="targetPoint" />
          </mxGeometry>
        </mxCell>
        <mxCell id="KhHzcaILqEh-gFajsOOs-80" value="Book" style="shape=rhombus;perimeter=rhombusPerimeter;whiteSpace=wrap;html=1;align=center;fontSize=17;" parent="1" vertex="1">
          <mxGeometry x="320" y="430" width="120" height="60" as="geometry" />
        </mxCell>
        <mxCell id="KhHzcaILqEh-gFajsOOs-83" value="" style="edgeStyle=entityRelationEdgeStyle;fontSize=20;html=1;endArrow=none;rounded=0;entryX=1;entryY=0.5;entryDx=0;entryDy=0;exitX=0;exitY=0.5;exitDx=0;exitDy=0;startFill=0;" parent="1" source="KhHzcaILqEh-gFajsOOs-42" target="KhHzcaILqEh-gFajsOOs-82" edge="1">
          <mxGeometry width="100" height="100" relative="1" as="geometry">
            <mxPoint x="620" y="270" as="sourcePoint" />
            <mxPoint x="80" y="290" as="targetPoint" />
          </mxGeometry>
        </mxCell>
        <mxCell id="KhHzcaILqEh-gFajsOOs-82" value="Have" style="shape=rhombus;perimeter=rhombusPerimeter;whiteSpace=wrap;html=1;align=center;fontSize=17;" parent="1" vertex="1">
          <mxGeometry x="270" y="260" width="120" height="60" as="geometry" />
        </mxCell>
        <mxCell id="KhHzcaILqEh-gFajsOOs-84" value="" style="endArrow=none;html=1;rounded=0;exitX=0.75;exitY=1;exitDx=0;exitDy=0;entryX=0.25;entryY=0;entryDx=0;entryDy=0;fontSize=20;" parent="1" source="KhHzcaILqEh-gFajsOOs-87" target="KhHzcaILqEh-gFajsOOs-42" edge="1">
          <mxGeometry relative="1" as="geometry">
            <mxPoint x="180" y="220" as="sourcePoint" />
            <mxPoint x="340" y="220" as="targetPoint" />
          </mxGeometry>
        </mxCell>
        <mxCell id="KhHzcaILqEh-gFajsOOs-86" value="" style="endArrow=none;html=1;rounded=0;entryX=0.25;entryY=1;entryDx=0;entryDy=0;exitX=0.75;exitY=0;exitDx=0;exitDy=0;fontSize=20;" parent="1" source="KhHzcaILqEh-gFajsOOs-53" target="KhHzcaILqEh-gFajsOOs-85" edge="1">
          <mxGeometry relative="1" as="geometry">
            <mxPoint x="55" y="280" as="sourcePoint" />
            <mxPoint x="315" y="-50" as="targetPoint" />
          </mxGeometry>
        </mxCell>
        <mxCell id="KhHzcaILqEh-gFajsOOs-85" value="Manage" style="shape=rhombus;perimeter=rhombusPerimeter;whiteSpace=wrap;html=1;align=center;fontSize=17;" parent="1" vertex="1">
          <mxGeometry x="150" y="40" width="120" height="60" as="geometry" />
        </mxCell>
        <mxCell id="KhHzcaILqEh-gFajsOOs-88" value="" style="endArrow=none;html=1;rounded=0;exitX=0.75;exitY=1;exitDx=0;exitDy=0;entryX=0.25;entryY=0;entryDx=0;entryDy=0;fontSize=20;" parent="1" source="KhHzcaILqEh-gFajsOOs-66" target="KhHzcaILqEh-gFajsOOs-87" edge="1">
          <mxGeometry relative="1" as="geometry">
            <mxPoint x="365" y="-50" as="sourcePoint" />
            <mxPoint x="645" y="250" as="targetPoint" />
          </mxGeometry>
        </mxCell>
        <mxCell id="KhHzcaILqEh-gFajsOOs-87" value="Manage" style="shape=rhombus;perimeter=rhombusPerimeter;whiteSpace=wrap;html=1;align=center;fontSize=17;" parent="1" vertex="1">
          <mxGeometry x="425" y="40" width="120" height="60" as="geometry" />
        </mxCell>
        <mxCell id="KhHzcaILqEh-gFajsOOs-89" value="" style="endArrow=none;html=1;rounded=0;exitX=0.958;exitY=0.5;exitDx=0;exitDy=0;entryX=0;entryY=0.75;entryDx=0;entryDy=0;fontSize=20;exitPerimeter=0;" parent="1" source="KhHzcaILqEh-gFajsOOs-90" target="KhHzcaILqEh-gFajsOOs-41" edge="1">
          <mxGeometry relative="1" as="geometry">
            <mxPoint x="200" y="570" as="sourcePoint" />
            <mxPoint x="360" y="570" as="targetPoint" />
          </mxGeometry>
        </mxCell>
        <mxCell id="KhHzcaILqEh-gFajsOOs-91" value="" style="endArrow=none;html=1;rounded=0;exitX=1;exitY=0.75;exitDx=0;exitDy=0;entryX=0;entryY=0.5;entryDx=0;entryDy=0;fontSize=20;" parent="1" source="KhHzcaILqEh-gFajsOOs-59" target="KhHzcaILqEh-gFajsOOs-90" edge="1">
          <mxGeometry relative="1" as="geometry">
            <mxPoint x="90" y="690" as="sourcePoint" />
            <mxPoint x="680" y="670" as="targetPoint" />
          </mxGeometry>
        </mxCell>
        <mxCell id="KhHzcaILqEh-gFajsOOs-90" value="&lt;font style=&quot;font-size: 17px;&quot;&gt;Make&lt;/font&gt;" style="shape=rhombus;perimeter=rhombusPerimeter;whiteSpace=wrap;html=1;align=center;" parent="1" vertex="1">
          <mxGeometry x="320" y="660" width="120" height="60" as="geometry" />
        </mxCell>
        <mxCell id="KhHzcaILqEh-gFajsOOs-97" style="rounded=0;orthogonalLoop=1;jettySize=auto;html=1;exitX=1;exitY=1;exitDx=0;exitDy=0;entryX=0;entryY=0;entryDx=0;entryDy=0;endArrow=none;startFill=0;" parent="1" source="KhHzcaILqEh-gFajsOOs-93" target="KhHzcaILqEh-gFajsOOs-53" edge="1">
          <mxGeometry relative="1" as="geometry" />
        </mxCell>
        <mxCell id="KhHzcaILqEh-gFajsOOs-93" value="&lt;span style=&quot;font-size: 17px;&quot;&gt;Appointment_ID&lt;/span&gt;" style="ellipse;whiteSpace=wrap;html=1;align=center;fontStyle=4;" parent="1" vertex="1">
          <mxGeometry x="-320" y="210" width="150" height="40" as="geometry" />
        </mxCell>
      </root>
    </mxGraphModel>
  </diagram>
</mxfile>
